<svg width="64" height="64" viewBox="0 0 64 64" fill="none" xmlns="http://www.w3.org/2000/svg">
<path d="M3.42287 39.2603C3.632 39.8271 3.9615 40.3374 4.38312 40.7555C5.13075 41.5031 6.1585 41.9673 7.29225 41.9673C8.42263 41.9673 9.45375 41.5031 10.2013 40.7555C10.9489 40.008 11.413 38.9769 11.413 37.8465V35.554C10.545 35.6284 9.78312 35.4406 9.18787 35.1925C9.13462 35.4511 9.0745 35.7028 8.9965 35.9508C8.70238 36.9074 8.20988 37.7791 7.43038 38.4063C6.64025 39.0441 5.5915 39.4126 4.20237 39.3416C3.95438 39.331 3.69562 39.3028 3.42287 39.2603ZM27.7091 33.1198H35.9509V30.5295H29.6047C29.0839 30.5295 28.609 30.7458 28.2654 31.0894C27.9216 31.4331 27.7091 31.9044 27.7091 32.4253V33.1198ZM35.9507 34.9941H27.709V37.8464C27.709 38.9768 28.1731 40.0079 28.9207 40.7554C29.6682 41.503 30.6994 41.9671 31.8298 41.9671C32.9635 41.9671 33.9946 41.503 34.7389 40.7554C35.4864 40.0079 35.9506 38.9768 35.9506 37.8464V34.9941H35.9507ZM61.6401 41.2516C62.1432 41.5174 62.5861 41.8789 62.9511 42.3075C63.6066 43.08 64 44.0756 64 45.1563V51.4775C64 51.9949 63.5819 52.4129 63.0646 52.4129C62.5474 52.4129 62.1256 51.9948 62.1256 51.4775V45.1563C62.1256 44.5328 61.8988 43.9586 61.5233 43.5158C61.1901 43.1224 60.7401 42.8319 60.2264 42.6938C59.2379 43.4165 58.0223 43.8418 56.7114 43.8418C55.3544 43.8418 54.0999 43.3883 53.09 42.6194C52.8988 42.6406 52.7144 42.6939 52.5373 42.7754C52.2962 42.8886 52.0766 43.0624 51.8994 43.2961L46.8643 49.9648C46.6871 50.1986 46.4107 50.3404 46.1167 50.3404H39.6644C39.186 50.3404 38.7537 50.5316 38.442 50.8434C38.1301 51.1588 37.9352 51.591 37.9352 52.0659C37.9352 52.5441 38.1301 52.9765 38.442 53.2883C38.7537 53.6 39.186 53.795 39.6644 53.795H47.371C47.6795 53.795 47.9167 53.7631 48.211 53.6143C48.7566 53.3414 49.2669 52.5124 49.6389 52.0163L52.9733 47.6049C53.285 47.1904 53.8696 47.1088 54.2841 47.4206C54.6951 47.7324 54.7766 48.3205 54.4649 48.7316L51.2936 52.9339V61.1048H62.1256V55.7224C62.1256 55.205 62.5472 54.787 63.0646 54.787C63.582 54.787 64 55.2051 64 55.7224V62.0436C64 62.561 63.5819 62.979 63.0646 62.979C42.3536 62.979 21.6464 62.979 0.939 62.979C0.42175 62.979 0 62.5609 0 62.0436V55.7224C0 55.205 0.42175 54.787 0.939 54.787C1.45638 54.787 1.87437 55.2051 1.87437 55.7224V61.1048H12.71V52.9339L9.53525 48.7316C9.2235 48.3205 9.305 47.7324 9.71963 47.4206C10.1306 47.1088 10.7188 47.1903 11.0306 47.6049L14.2904 51.9206C14.588 52.3139 14.8858 52.7106 15.1833 53.1076C15.3533 53.3308 15.5624 53.5009 15.7928 53.6143C16.0514 53.7454 16.2924 53.795 16.5759 53.795H24.3393C24.8141 53.795 25.2464 53.6 25.5616 53.2883C25.8735 52.9765 26.0648 52.5441 26.0648 52.0659C26.0648 51.591 25.8735 51.1588 25.5616 50.8434C25.2464 50.5316 24.8141 50.3404 24.3393 50.3404H17.8834C17.5999 50.3404 17.32 50.2093 17.1359 49.9648L12.1007 43.2961C11.8136 42.917 11.3849 42.6726 10.9102 42.6194C9.90387 43.3848 8.64962 43.8418 7.2925 43.8418C5.9815 43.8418 4.7625 43.4166 3.774 42.6974C3.27087 42.8285 2.82438 43.1155 2.49125 43.4981C2.1085 43.9445 1.87462 44.5221 1.87462 45.1564V51.4776C1.87462 51.995 1.4565 52.413 0.93925 52.413C0.422 52.413 0.00025 51.9949 0.00025 51.4776V45.1564C0.00025 44.0615 0.40775 43.0518 1.07738 42.2758C1.43888 41.8613 1.87463 41.5104 2.36363 41.2518C1.66563 40.249 1.29712 39.0655 1.29712 37.8466V32.4254C1.29712 31.3871 1.71875 30.4446 2.40263 29.7609C3.08663 29.0806 4.0255 28.6554 5.06362 28.6554H9.5175C10.5557 28.6554 11.4983 29.0805 12.182 29.7609C12.866 30.4448 13.2876 31.3873 13.2876 32.4254V37.8466C13.2876 39.0478 12.9297 40.1711 12.3166 41.11C12.8234 41.3651 13.252 41.7159 13.5957 42.1695L18.3475 48.4624H22.0998V44.6605C22.0998 43.5834 22.6702 42.6089 23.595 41.7833C24.3109 41.1455 25.2534 40.5891 26.2951 40.1499C25.9975 39.4376 25.8346 38.6616 25.8346 37.8466V34.0588V32.4253C25.8346 31.387 26.2598 30.4445 26.9403 29.7608C27.6241 29.0805 28.5666 28.6553 29.6047 28.6553H36.8898C37.4073 28.6553 37.8289 29.0769 37.8289 29.5943V34.0589V37.8466C37.8289 38.6155 37.6801 39.3526 37.4144 40.0329C38.534 40.4723 39.5474 41.0391 40.3129 41.6981C41.2943 42.5415 41.9002 43.5478 41.9002 44.6604V48.4623H45.6525L50.4043 42.1694C50.7551 41.7086 51.1944 41.3544 51.687 41.1135C51.0704 40.171 50.7125 39.0478 50.7125 37.8465V32.4253C50.7125 31.387 51.1378 30.4445 51.8181 29.7608C52.502 29.0805 53.4445 28.6553 54.4826 28.6553H58.9367C59.9749 28.6553 60.9175 29.0804 61.6012 29.7608C62.2815 30.4446 62.7067 31.3871 62.7067 32.4253V37.8465C62.7066 39.0653 62.3346 40.2488 61.6401 41.2516ZM60.5771 39.2603C60.3079 39.3028 60.0456 39.331 59.7976 39.3416C58.4121 39.4125 57.3633 39.044 56.5731 38.4063C55.79 37.7791 55.2975 36.9075 55.0034 35.9508C54.9289 35.7028 54.8652 35.4511 54.8155 35.1925C54.2167 35.4405 53.4585 35.6283 52.5869 35.554V37.8465C52.5869 38.9769 53.051 40.008 53.7986 40.7555C54.5461 41.5031 55.5774 41.9673 56.7113 41.9673C57.8415 41.9673 58.8728 41.5031 59.6204 40.7555C60.0386 40.3374 60.368 39.8271 60.5771 39.2603ZM52.5869 33.676C53.8376 33.8531 54.7518 33.1268 54.9147 32.985C55.0991 32.8291 55.2726 32.7335 55.5243 32.7228C56.0416 32.698 56.4774 33.0949 56.5021 33.6121C56.5341 34.2216 56.619 34.8383 56.7926 35.4015C56.984 36.0286 57.2851 36.5814 57.7424 36.9499C58.1924 37.3114 58.8267 37.5169 59.709 37.4743C60.0491 37.4565 60.4211 37.4035 60.8321 37.3113V32.425C60.8321 31.9041 60.616 31.4329 60.2723 31.0891C59.9286 30.7455 59.4572 30.5293 58.9365 30.5293H54.4825C53.9616 30.5293 53.4902 30.7455 53.1466 31.0891C52.8029 31.4329 52.5869 31.9041 52.5869 32.425V33.676ZM11.4131 33.676V32.4251C11.4131 31.9043 11.2006 31.433 10.8569 31.0893C10.5133 30.7456 10.0384 30.5294 9.5175 30.5294H5.06337C4.54612 30.5294 4.07125 30.7456 3.7275 31.0893C3.38387 31.433 3.17125 31.9043 3.17125 32.4251V37.3114C3.57875 37.4035 3.95075 37.4566 4.291 37.4744C5.17338 37.517 5.80763 37.3114 6.2575 36.95C6.71463 36.5816 7.01575 36.0288 7.21075 35.4016C7.38438 34.8383 7.46937 34.2218 7.49775 33.6123C7.5225 33.0949 7.96187 32.6981 8.47563 32.7229C8.71663 32.7336 8.90075 32.8221 9.078 32.978C9.20925 33.0949 10.1376 33.8566 11.4131 33.676ZM27.2981 41.7619C26.32 42.141 25.4555 42.6229 24.8389 43.1758C24.3039 43.6505 23.9743 44.1608 23.9743 44.6604V48.4623H24.3393C25.3315 48.4623 26.235 48.8661 26.887 49.5181C27.539 50.1701 27.9429 51.0701 27.9429 52.0659C27.9429 52.693 27.7799 53.2813 27.5 53.795H36.5C36.2201 53.2813 36.0606 52.693 36.0606 52.0659C36.0606 51.0701 36.4645 50.1701 37.1166 49.5181C37.7686 48.8661 38.6685 48.4623 39.6642 48.4623H40.0257V44.6604C40.0257 44.143 39.6714 43.6115 39.0974 43.119C38.4241 42.5415 37.4886 42.0419 36.4469 41.6628C36.3264 41.808 36.1989 41.9498 36.0677 42.0809C34.98 43.1686 33.4811 43.8419 31.83 43.8419C30.1822 43.8419 28.68 43.1686 27.5958 42.0809C27.4929 41.9779 27.3936 41.8718 27.2981 41.7619ZM7.81313 7.96212C7.29575 7.96212 6.87775 7.5405 6.87775 7.02313C6.87775 6.50575 7.29588 6.08775 7.81313 6.08775H25.1684C25.6857 6.08775 26.1039 6.50587 26.1039 7.02313C26.1039 7.5405 25.6856 7.96212 25.1684 7.96212H7.81313ZM7.81313 17.8267C7.29575 17.8267 6.87775 17.4051 6.87775 16.8878C6.87775 16.3704 7.29588 15.9488 7.81313 15.9488H16.4909C17.0083 15.9488 17.4299 16.3704 17.4299 16.8878C17.4299 17.4051 17.0083 17.8267 16.4909 17.8267H7.81313ZM7.81313 12.8945C7.29575 12.8945 6.87775 12.4727 6.87775 11.9555C6.87775 11.4381 7.29588 11.0201 7.81313 11.0201H25.1684C25.6857 11.0201 26.1039 11.4382 26.1039 11.9555C26.1039 12.4727 25.6856 12.8945 25.1684 12.8945H7.81313ZM26.1286 22.8901C26.2598 23.2551 26.4688 23.581 26.7346 23.8468C27.2095 24.3251 27.8685 24.6228 28.6019 24.6228H34.1118C34.6291 24.6228 35.0471 25.0409 35.0471 25.5618C35.0471 26.0791 34.629 26.4971 34.1118 26.4971H28.6019C27.3511 26.4971 26.2243 25.987 25.4093 25.1649C24.7999 24.552 24.3675 23.7654 24.1833 22.8901H11.112L6.86713 27.135C6.69712 27.3051 6.46325 27.4114 6.201 27.4114C5.68363 27.4114 5.262 26.9933 5.262 26.476V22.8123C4.07137 22.6138 3.00475 22.0434 2.18637 21.2213C1.15525 20.1936 0.5175 18.7728 0.5175 17.2066V6.70437C0.5175 5.14175 1.15537 3.72087 2.18637 2.68987C3.21387 1.66225 4.63475 1.02087 6.201 1.02087H26.7809C28.3469 1.02087 29.7679 1.66225 30.7954 2.68987C31.8265 3.72087 32.4642 5.14175 32.4642 6.70437V8.44063H48.3882C49.6319 8.44063 50.7588 8.94737 51.5773 9.76587C52.3958 10.5844 52.9025 11.7111 52.9025 12.9549V21.9833C52.9025 23.227 52.3958 24.3538 51.5773 25.1723C50.9713 25.7783 50.1919 26.214 49.3237 26.3984V30.0834C49.3237 30.3208 49.2351 30.5616 49.0509 30.746C48.6859 31.1109 48.0906 31.1109 47.7255 30.746L43.4771 26.4975H38.357C37.8396 26.4975 37.418 26.0794 37.418 25.5621C37.418 25.0413 37.8396 24.6231 38.357 24.6231H43.8669C44.1291 24.6231 44.3629 24.7295 44.533 24.903L47.4491 27.8191V25.562C47.4491 25.0411 47.8707 24.623 48.3882 24.623C49.111 24.623 49.7736 24.3254 50.252 23.847C50.7304 23.3688 51.028 22.7096 51.028 21.9833V12.9549C51.028 12.2285 50.7304 11.5695 50.252 11.0911C49.7736 10.6128 49.111 10.3151 48.3882 10.3151H32.4641V17.2069C32.4641 18.773 31.8264 20.1939 30.7952 21.2215C29.7676 22.2525 28.3468 22.8904 26.7808 22.8904H26.1286V22.8901ZM10.7221 21.0158H26.7808C27.8296 21.0158 28.7791 20.587 29.4701 19.8961C30.161 19.2051 30.5898 18.252 30.5898 17.2066V6.70437C30.5898 5.65912 30.161 4.706 29.4701 4.015C28.7793 3.324 27.8296 2.89525 26.7808 2.89525H6.20087C5.152 2.89525 4.20237 3.324 3.51137 4.015C2.8205 4.70587 2.39162 5.659 2.39162 6.70437V17.2068C2.39162 18.252 2.8205 19.2051 3.51137 19.8962C4.20225 20.5871 5.152 21.0159 6.20087 21.0159C6.71825 21.0159 7.13625 21.4375 7.13625 21.9549V24.212L10.0595 21.2924C10.2439 21.1079 10.4812 21.0158 10.7221 21.0158ZM49.4191 55.6693H14.5845V61.1046H49.4193V55.6693H49.4191Z" fill="#262431"/>
</svg>
