<svg width="164" height="41" viewBox="0 0 164 41" fill="none" xmlns="http://www.w3.org/2000/svg">
<path d="M27.6049 14.21C28.1149 14.205 28.6249 14.205 29.1349 14.2C29.0349 11.705 28.9349 9.20999 28.8299 6.71499C26.5099 6.07499 23.4849 5.50499 19.9399 5.49499C18.1049 5.48999 16.4399 5.64 14.9699 5.855C13.3899 6.115 10.3649 6.82999 7.32986 9.08999C3.32486 12.07 1.81986 15.875 1.47486 16.815C0.924856 18.295 -0.330143 22.34 1.02986 27.045C3.17986 34.48 10.1449 37.6 11.5549 38.23C14.9399 39.745 18.4599 40.1 21.4599 40.4C23.7299 40.63 25.6449 40.645 27.0249 40.61C30.7899 40.53 34.0849 40.38 36.7899 40.22C38.0649 40.145 40.5849 39.985 43.7899 39.705C47.4299 39.385 48.9248 39.18 53.0898 38.73C59.3148 38.06 62.4298 37.72 65.8998 37.515C70.6098 37.235 74.3398 37.225 76.5598 37.24C82.0248 37.28 85.3249 37.59 90.4949 37.94C101.98 38.725 102.2 38.235 108.39 38.835C111.195 39.105 113.305 39.38 117.46 39.68C118.42 39.75 122.12 40.01 126.94 40.045C129.625 40.065 130.99 40.07 132.11 39.885C134.09 39.555 137.415 39.005 139.895 36.615C140.43 36.1 141.555 34.76 143.2 33.04C143.37 32.86 143.87 32.345 144.6 31.76C145.28 31.215 145.735 30.85 146.33 30.605C147.39 30.165 147.87 30.54 149.175 30.41C150.09 30.32 150.88 29.94 152.455 29.18C154.55 28.175 154.375 27.97 155.975 27.24C158.16 26.245 160.13 25.795 160.13 25.795C160.72 25.65 161.13 25.505 161.95 25.205C163.07 24.8 163.615 24.56 163.625 24.25C163.635 23.955 163.2 23.705 162.985 23.58C162.475 23.285 161.98 23.27 161.86 23.265C160.105 23.21 159.225 23.195 158.95 23.165C157.295 22.99 156.61 22.37 155.745 22.6C155.64 22.63 155.195 22.76 155.14 22.655C155.115 22.605 155.18 22.52 155.245 22.45C155.245 22.45 157.16 20.575 157.87 19.755C158.64 18.865 158.095 18.795 158.945 17.705C159.76 16.665 160.565 16.34 160.93 15.185C161.125 14.575 161.01 14.33 160.96 14.245C160.7 13.785 159.96 13.755 159.085 13.74C156.945 13.71 155.875 13.69 155.54 13.78C152.09 14.69 150.39 18.445 150.285 18.77C150.27 18.82 150.165 19.18 149.915 19.59C149.88 19.645 149.85 19.69 149.84 19.705C149.915 19.05 150.02 18.1 150.115 16.95C150.4 13.63 150.36 12.075 150.3 11.065C150.14 8.35999 149.695 7.52499 149.135 6.96499C148.685 6.51499 148.19 6.26999 147.825 6.13499C147.675 6.10999 147.45 6.09499 147.22 6.18499C147.08 6.23999 146.985 6.30999 146.935 6.355C145.75 7.33 144.955 8.55499 144.955 8.55499C144.145 9.80999 143.735 10.435 143.535 10.89C142.505 13.21 142.26 16.135 142.275 16.475C142.275 16.49 142.28 16.54 142.265 16.545C142.205 16.56 141.9 15.53 141.765 15.13C141.085 13.125 139.47 11.82 139.31 11.695C139.005 11.455 138.03 10.725 136.565 10.355C135.875 10.18 135.245 10.195 133.98 10.215C133.64 10.22 133.295 10.24 133.085 10.48C132.81 10.8 132.89 11.37 133.065 11.735C133.25 12.13 133.5 12.185 133.99 12.875C134.1 13.03 134.16 13.125 134.235 13.245C134.74 14.04 135.125 14.405 135.545 14.975C135.885 15.435 136.17 16.02 136.74 17.195C136.9 17.53 137.365 18.56 137.22 18.645C137.2 18.655 137.175 18.65 137.17 18.645C136.915 18.56 134.375 18.015 133.63 18.765C133.335 19.06 133.315 19.57 133.425 19.895C133.58 20.36 134.02 20.445 134.77 21.035C135.105 21.295 135.35 21.545 135.84 22.045C136.135 22.345 136.91 23.16 137.73 24.36C138.335 25.25 138.695 25.955 139.1 26.75C139.345 27.23 139.715 27.955 140.095 28.92C140.535 30.03 140.41 29.99 140.655 30.41C140.655 30.415 141.02 31.035 141.02 31.42C141.02 31.53 140.995 31.625 141.015 31.825C141.025 31.915 141.04 31.99 141.005 32.075C140.965 32.175 140.885 32.225 140.86 32.24C140.605 32.415 140.165 33.16 139.51 33.85C139.11 34.27 138.755 34.54 138.355 34.84C137.81 35.25 137.37 35.51 137.27 35.565C136.605 35.955 136.045 36.17 135.49 36.38C134.28 36.83 133.36 37.175 132.475 37.41C130.975 37.81 129.435 37.825 126.425 37.85C124.915 37.86 123.005 37.87 120.45 37.66C118.785 37.52 118.885 37.46 116.58 37.23C113.505 36.925 113.3 37.03 110.375 36.76C107.375 36.48 107.12 36.32 104.47 36.115C102.91 35.99 102.465 36.005 99.8248 35.89C95.9848 35.725 92.6698 35.58 89.0048 35.27C89.0048 35.27 86.2398 35.035 83.9498 34.95C82.8048 34.91 81.6648 34.895 81.6648 34.895C80.9048 34.885 80.3148 34.89 79.9498 34.895C74.7598 34.94 71.9048 35.035 71.9048 35.035C70.2298 35.035 67.0949 35.205 63.1199 35.46C58.5749 35.75 56.8598 35.975 50.1399 36.555C47.7948 36.76 44.3699 37.045 40.1799 37.365C39.2949 37.45 38.0049 37.565 36.4449 37.67C33.2399 37.89 29.3999 38.05 24.9899 37.97C21.5349 37.905 20.1449 37.735 18.9749 37.535C16.2499 37.065 14.8099 36.425 13.8949 35.93C13.2399 35.575 12.2299 35.025 11.1899 33.995C9.98986 32.81 9.44986 31.685 8.55486 29.88C7.83986 28.43 7.14486 27.02 6.76986 24.995C6.51986 23.66 6.52486 22.675 6.52986 20.895C6.53486 18.965 6.53986 18 6.87986 16.715C7.29986 15.13 7.97486 14.005 8.42986 13.25C8.94486 12.4 9.47486 11.525 10.4749 10.6C10.8499 10.255 12.1749 9.07999 14.2249 8.41499C15.1599 8.10999 15.9599 8.00499 16.5849 7.91999C16.8099 7.88999 17.7599 7.76999 19.0399 7.77499C19.9699 7.77999 20.8349 7.79499 21.9299 8.05499C22.6549 8.22999 23.1499 8.44499 23.3299 8.52499C23.9099 8.78499 24.3699 9.06999 24.6999 9.30999C24.8399 9.39999 24.9949 9.50999 25.1499 9.64999C25.2699 9.75499 25.3699 9.85999 25.4599 9.95499C25.8099 10.275 26.0699 10.58 26.2549 10.82C26.4899 11.125 26.6399 11.38 26.7599 11.57C26.9899 11.955 27.1599 12.3 27.2849 12.58C27.3949 13.12 27.4999 13.665 27.6049 14.21Z" fill="black"/>
<path d="M26.61 1.41501C26.595 1.43001 26.585 1.44501 26.58 1.45501C26.57 2.21001 26.57 2.76501 26.595 2.86001C26.6 2.87501 26.61 2.92501 26.65 2.95501C26.695 2.99001 26.745 2.98001 26.75 2.98001C26.92 2.96501 27.165 2.945 27.465 2.935C28.26 2.915 28.665 2.88501 29.005 3.05501C29.005 3.05501 29.58 3.30501 30.08 4.10501C30.125 4.17501 30.21 4.315 30.24 4.515C30.245 4.56 30.25 4.595 30.25 4.615C30.24 5.335 30.23 6.055 30.22 6.78C30.22 15.97 30.22 25.165 30.22 34.355C32.595 34.315 34.325 34.28 34.805 34.285C34.88 34.285 35.06 34.285 35.21 34.17C35.32 34.085 35.375 33.91 35.485 33.555C35.57 33.28 35.61 33.07 35.635 32.89C35.64 32.835 35.645 32.79 35.65 32.755C35.65 22.975 35.645 13.195 35.645 3.41501C35.65 3.37001 35.665 3.30001 35.7 3.23001C35.76 3.10001 35.865 2.995 36.02 2.895C36.485 2.605 37.055 2.53 37.055 2.53C37.375 2.485 37.885 2.455 38.515 2.585C39.61 2.785 42.09 3.345 43.935 4.765C44.615 5.29 44.96 5.74001 45.125 5.98001C45.865 7.05001 45.99 8.13001 46.05 8.72001C46.1 9.19501 46.365 11.79 44.595 13.975C43.325 15.54 41.7 16.055 40.405 16.465C39.095 16.88 37.945 16.98 37.17 16.99C37.175 17.515 37.18 18.035 37.185 18.56C37.225 18.56 37.285 18.56 37.36 18.56C37.44 18.56 37.5 18.56 37.61 18.565C37.735 18.565 37.85 18.57 37.88 18.57C38.34 18.575 38.955 18.59 39.36 18.62C39.99 18.67 40.47 18.81 40.795 18.905C41.55 19.125 42.6 19.435 43.51 20.315C44.26 21.045 44.63 21.89 44.82 22.54C45.015 23.165 45.32 24.135 45.685 25.335C46.41 27.705 46.42 27.535 46.845 29.165C47.35 31.1 47.23 31.185 47.6 31.975C47.765 32.355 48.23 33.335 49.23 34.015C49.44 34.155 49.715 34.345 50.125 34.46C50.505 34.57 50.81 34.565 51.035 34.56C52.12 34.535 52.665 34.525 53.275 34.47C54.135 34.39 54.4 34.34 55.27 34.285C55.565 34.265 55.805 34.255 55.965 34.25C55.975 34.245 55.995 34.235 56.015 34.22C56.03 34.205 56.04 34.19 56.045 34.18C56.055 33.765 56.055 33.345 56.045 32.91C56.045 32.835 56.04 32.755 56.04 32.68C56.035 32.67 56.025 32.655 56.01 32.64C55.975 32.61 55.935 32.61 55.925 32.61C55.75 32.615 55.505 32.615 55.2 32.61C54.735 32.6 54.625 32.585 54.52 32.555C54.265 32.475 54.07 32.33 53.86 32.115C53.25 31.5 52.895 30.71 52.65 30.1C52.33 29.31 52.185 28.805 52.185 28.805C51.675 27.06 51.025 24.925 50.735 24.045C50 21.785 49.63 20.65 48.89 19.87C47.795 18.71 46.29 18.07 45.605 17.82C45.05 17.615 44.565 17.5 44.22 17.43C44.485 17.315 44.86 17.145 45.305 16.92C45.705 16.715 47.845 15.625 49.175 14.315C49.54 13.955 51.88 11.645 51.73 8.335C51.57 4.795 48.63 2.61501 47.805 2.07001C46.08 0.930005 44.47 0.760008 41.31 0.425008C39.51 0.235008 37.945 0.295009 34.815 0.410009C31.705 0.525009 29.59 0.770009 27.43 1.23001C27.115 1.29501 26.855 1.35501 26.675 1.40001C26.645 1.39001 26.625 1.40001 26.61 1.41501Z" fill="black"/>
<path d="M56.0747 14.69C56.0547 14.71 56.0547 14.735 56.0547 14.74C56.0497 15.145 56.0397 15.55 56.0347 15.96C56.0347 15.965 56.0397 15.97 56.0447 15.975C56.0497 15.98 56.0547 15.98 56.0597 15.98C56.6497 15.91 57.1397 15.92 57.4747 15.945C58.0397 15.985 58.8347 16.055 59.0847 16.46C59.2197 16.68 59.2847 16.97 59.2847 16.97C59.3097 17.115 59.3297 17.26 59.3297 17.26C59.3297 17.26 59.3347 17.31 59.3347 17.36C59.3347 17.535 59.3397 27.06 59.3397 33.39C59.3447 33.66 59.3947 34.055 59.6647 34.325C59.9897 34.65 60.3597 34.525 61.8447 34.51C62.8147 34.5 63.4147 34.545 63.9747 34.255C64.1397 34.17 64.4697 33.995 64.5647 33.65C64.5997 33.525 64.5947 33.415 64.5847 33.34C64.5747 26.835 64.5647 20.335 64.5547 13.83C64.5647 13.695 64.5547 13.515 64.4497 13.365C64.2897 13.15 63.9697 13.075 62.9597 13.16C62.0697 13.235 61.3997 13.345 61.2397 13.375C60.5047 13.5 59.8697 13.605 59.0097 13.81C58.2647 13.985 57.6997 14.15 57.4647 14.22C57.0797 14.335 56.6297 14.48 56.1247 14.66C56.1197 14.66 56.0947 14.665 56.0747 14.69Z" fill="black"/>
<path d="M59.0549 3.17999C58.8249 3.73999 58.8799 4.22999 58.9249 4.59999C58.9799 5.05999 59.0849 5.94999 59.7949 6.64499C60.9149 7.72999 62.5299 7.35499 62.6449 7.32499C62.9099 7.25999 63.7099 7.04499 64.2749 6.29499C64.7199 5.69499 64.7749 5.07499 64.8049 4.69999C64.8399 4.27499 64.9549 2.94999 64.0649 2.16499C63.5899 1.74499 63.0499 1.66999 62.5199 1.59499C62.1149 1.53499 61.1649 1.39999 60.2199 1.94499C59.9599 2.08999 59.3599 2.44499 59.0549 3.17999Z" fill="black"/>
<path d="M66.2499 14.595C66.2449 14.61 66.2399 14.62 66.2349 14.625C66.2399 15.03 66.2499 15.435 66.2549 15.84C66.2549 15.855 66.2599 15.89 66.2899 15.925C66.3049 15.94 66.3199 15.955 66.3299 15.96C66.9899 15.96 67.6449 15.96 68.3049 15.96C68.4199 15.98 68.5499 16.02 68.6749 16.09C69.2649 16.4 69.4249 17.07 69.4599 17.225C69.4599 17.8 69.4649 18.97 69.4649 19.545C69.4699 24.355 69.4699 29.155 69.4599 33.945C69.4599 34.035 69.4349 34.33 69.5999 34.43C69.6649 34.47 69.7349 34.465 69.7599 34.465C70.2599 34.435 70.7649 34.53 71.2599 34.48C72.1999 34.385 72.6149 34.505 73.6099 34.35C73.7349 34.33 73.9549 34.295 74.1699 34.135C74.4799 33.9 74.5849 33.545 74.6199 33.35C74.6749 30.695 74.7049 27.99 74.7099 25.245C74.7149 22.61 74.6899 20.02 74.6449 17.47C74.6449 17.465 74.6449 17.45 74.6549 17.435C74.6649 17.415 74.6899 17.41 74.6899 17.41C75.5649 17.075 76.3149 16.825 76.8849 16.645C78.6049 16.1 79.2799 16.02 79.7399 15.995C80.4249 15.96 80.9349 16.035 81.2499 16.085C81.5949 16.14 81.7949 16.195 81.9849 16.265C82.1399 16.325 82.4449 16.45 82.7749 16.695C82.8699 16.765 83.2599 17.06 83.6099 17.595C83.6999 17.73 83.8499 17.985 84.0349 18.47C84.1949 18.905 84.3899 19.545 84.4799 20.375C84.4849 20.965 84.4899 21.795 84.4949 22.795C84.4999 23.54 84.4999 24.175 84.4999 26C84.4999 28.725 84.4999 30.12 84.4899 31.615C84.4899 31.875 84.4549 32.785 84.4749 34.005C84.4799 34.175 84.4799 34.32 84.4849 34.41C84.4849 34.415 84.4899 34.475 84.5349 34.505C84.5599 34.52 84.5899 34.525 84.5999 34.52C85.0649 34.53 85.4649 34.535 85.7599 34.535C86.2899 34.535 86.9299 34.56 87.6949 34.485C87.6949 34.485 87.9199 34.47 88.3399 34.41C88.8899 34.335 89.2499 34.25 89.3899 34.04C89.3999 34.025 89.4449 33.955 89.4899 33.855C89.4899 33.855 89.5599 33.715 89.6049 33.56C89.9899 32.235 89.6149 19.145 89.6149 19.145C89.5849 18.155 89.5599 16.375 88.3999 14.95C87.8549 14.275 87.2099 13.875 87.0099 13.755C85.9549 13.12 84.9749 13.025 84.1999 12.955C84.1999 12.955 82.6749 12.82 80.5849 13.3C80.5349 13.31 80.2899 13.37 79.9299 13.45C79.2549 13.605 79.2749 13.595 79.0149 13.66C79.0149 13.66 78.2699 13.82 77.6099 14.025C77.3249 14.115 77.0549 14.22 77.0549 14.22H77.0499C76.8399 14.305 76.6949 14.35 76.4899 14.42C76.2799 14.49 76.1749 14.525 76.0699 14.57C76.0099 14.595 75.9199 14.63 75.8049 14.69C75.7299 14.725 75.7149 14.735 75.6349 14.775C75.5349 14.82 75.4899 14.84 75.3949 14.88C75.2899 14.925 75.2199 14.96 75.0949 15.02C74.9949 15.065 74.8799 15.125 74.7449 15.195C74.7749 15 74.9199 14.005 74.3149 13.445C74.0049 13.16 73.5999 13.07 72.8749 13.08C71.2349 13.095 70.9799 13.56 69.3049 13.795C67.8549 13.995 66.6499 13.845 66.2499 14.595Z" fill="black"/>
<path d="M110.105 15.69C109.385 14.98 108.455 14.36 108.455 14.36C106.825 13.27 105.34 12.865 104.955 12.765C102.47 12.125 100.425 12.56 99.5503 12.755C98.7853 12.925 97.3253 13.27 95.7503 14.3C92.4103 16.49 91.3403 19.985 91.0253 21.32C90.5303 23.43 90.7603 25.085 90.8103 25.45C91.1753 27.91 92.3503 29.665 93.1203 30.6C95.3203 33.275 98.1803 34.08 99.2303 34.32C99.7303 34.435 105.145 35.555 109.365 31.695C112.65 28.69 112.935 24.74 112.975 23.75C113.11 20.55 111.875 17.43 110.105 15.69ZM107.36 28.505C107 29.585 106.575 30.22 106.115 30.705C105.385 31.47 104.62 31.79 104.455 31.855C103.44 32.26 102.565 32.175 102.125 32.125C101.895 32.1 100.885 31.975 99.7903 31.31C98.2803 30.39 97.5903 29.035 97.1453 28.14C96.1253 26.075 96.0903 24.235 96.0603 22.585C96.0303 21.06 96.0203 19.575 96.8253 17.94C97.1303 17.325 97.5003 16.585 98.3103 15.96C100.09 14.58 102.295 15.055 102.62 15.13C104.075 15.465 104.975 16.33 105.335 16.68C106.09 17.42 106.455 18.17 106.74 18.77C106.91 19.125 107.405 20.23 107.68 22.39C107.895 24.06 108.145 26.18 107.36 28.505Z" fill="black"/>
<path d="M113.355 14.255C113.3 14.35 113.285 14.44 113.285 14.5C113.29 14.805 113.295 15.115 113.295 15.42C113.3 15.45 113.31 15.52 113.365 15.585C113.465 15.7 113.62 15.68 113.635 15.675C113.755 15.67 113.925 15.66 114.125 15.665C114.315 15.665 114.605 15.67 114.95 15.715C115.26 15.755 115.425 15.775 115.59 15.845C116.045 16.04 116.295 16.43 116.385 16.57C116.78 17.185 118.795 19.935 121.69 23.88C118.845 27.22 116 30.56 113.15 33.9C113.065 34.04 113.065 34.2 113.15 34.3C113.205 34.365 113.285 34.385 113.32 34.39C113.38 34.395 113.465 34.4 113.565 34.405C114.14 34.435 114.525 34.4 115.09 34.35C115.875 34.285 116.595 34.235 116.98 34.08C117.265 33.965 117.48 33.785 117.48 33.785C117.545 33.73 117.595 33.68 117.63 33.645C119.54 31.195 121.455 28.75 123.365 26.3C125.215 28.9 127.065 31.5 128.915 34.105C128.97 34.185 129.08 34.325 129.27 34.425C129.535 34.57 129.79 34.55 129.885 34.535C130.055 34.53 133.23 34.39 133.965 34.145C134.06 34.11 134.29 34.035 134.385 33.83C134.47 33.64 134.4 33.43 134.355 33.32C131.88 29.74 129.4 26.16 126.925 22.575C131.04 17.555 133.99 13.975 134.295 13.645C134.34 13.6 134.525 13.41 134.47 13.255C134.46 13.225 134.42 13.145 134.185 13.07C133.86 12.965 133.575 13.005 133.54 13.01C133.15 13.06 132.75 13.08 132.36 13.135C131.88 13.2 131.555 13.235 131.1 13.34C130.95 13.375 130.76 13.42 130.54 13.535C130.335 13.645 130.19 13.77 130.09 13.86C128.5 15.93 126.91 18 125.32 20.07C123.73 17.79 122.14 15.51 120.55 13.23C120.435 13.155 120.255 13.065 120.02 13.02C119.765 12.97 119.56 13.005 119.485 13.02C118.79 13.135 118.09 13.195 117.405 13.34C116.255 13.58 114.95 13.855 114.115 13.925C113.96 13.935 113.525 13.97 113.355 14.255Z" fill="black"/>
</svg>
