<svg width="64" height="64" viewBox="0 0 64 64" fill="none" xmlns="http://www.w3.org/2000/svg">
<g clip-path="url(#clip0)">
<path d="M59.9309 48.1886C58.8057 46.535 56.8999 46.1295 54.8309 47.1026L40.4061 53.4541L40.4066 53.41C40.4069 53.3751 40.4054 53.3401 40.4021 53.3055C40.1497 50.768 38.2101 48.7462 35.6852 48.3891C35.6772 48.3879 35.6692 48.3869 35.6611 48.386L26.0703 47.2817C24.0446 46.993 23.0474 46.3155 21.1707 45.217C18.3933 43.5922 15.2244 42.7335 12.0067 42.7335H11.4087V41.763C11.4087 40.3345 10.2466 39.1722 8.81793 39.1722H6.01006C4.58156 39.1722 3.41943 40.3345 3.41943 41.763V59.6956C3.41943 61.1241 4.58156 62.2864 6.01006 62.2864H8.81806C10.1956 62.2864 11.3222 61.2049 11.4011 59.8469L20.7889 63.3412C21.9637 63.7784 23.1948 64 24.4478 64H37.3837C39.3667 64 41.3003 63.4412 42.9773 62.384L59.1538 53.2576C60.2864 52.618 61.2783 50.1689 59.9309 48.1886ZM58.1366 51.6787L42.0354 60.7626C42.0214 60.7705 42.0078 60.7787 41.9942 60.7872C40.6133 61.6624 39.0189 62.125 37.3837 62.125H24.4478C23.4188 62.125 22.4077 61.943 21.4429 61.5839L11.4087 57.849V51.0472C11.4087 50.5294 10.9889 50.1097 10.4712 50.1097C9.95343 50.1097 9.53368 50.5294 9.53368 51.0472V59.6957C9.53368 60.0904 9.21268 60.4115 8.81793 60.4115H6.01006C5.61543 60.4115 5.29443 60.0905 5.29443 59.6957V41.7631C5.29443 41.3685 5.61543 41.0474 6.01006 41.0474H8.81806C9.21268 41.0474 9.53381 41.3684 9.53381 41.7631V46.6631C9.53381 47.181 9.95356 47.6006 10.4713 47.6006C10.9891 47.6006 11.4088 47.181 11.4088 46.6631V44.6085H12.0069C14.8923 44.6085 17.7337 45.3785 20.2242 46.8354C22.2139 47.9984 23.4227 48.8006 25.8196 49.1399C25.8276 49.1411 25.8356 49.1421 25.8437 49.143L35.4341 50.2472C37.0789 50.485 38.3451 51.7937 38.5312 53.4419L38.5247 53.9616C32.9528 53.8971 30.8332 54.1474 27.2678 53.6269L25.6077 53.3845C25.0957 53.3101 24.6193 53.6642 24.5446 54.1766C24.4698 54.689 24.8244 55.165 25.3368 55.2397L26.9969 55.4821C30.7847 56.0354 32.9693 55.7654 39.4507 55.8366C39.5804 55.8366 39.7171 55.8064 39.8284 55.7571L55.5978 48.8137C55.6056 48.8104 55.6132 48.8067 55.6208 48.8032C56.4701 48.4017 57.6383 48.1521 58.3809 49.2434C58.9009 50.008 58.7923 51.0387 58.1366 51.6787Z" fill="#262431"/>
<path d="M15.0296 21.6914C15.7861 22.3003 16.0587 23.318 15.7081 24.2238C14.7627 26.6646 16.3177 29.3493 18.8988 29.7504C19.5306 29.8485 20.0678 30.2059 20.4048 30.7116L16.0148 39.2241C15.7513 39.7353 15.8075 40.3343 16.1613 40.7875C16.5152 41.2405 17.0826 41.4399 17.6425 41.3084L22.4308 40.1806L24.2882 44.7357C24.5053 45.2682 24.9971 45.6149 25.5716 45.6404C25.5942 45.6414 25.6167 45.6419 25.6391 45.6419C26.1866 45.6419 26.677 45.3442 26.9302 44.8532L31.039 36.8862C31.6755 37.0392 32.3291 37.0395 32.9665 36.8862L37.0752 44.8532C37.3283 45.3442 37.8188 45.6419 38.3663 45.6419C38.3887 45.6419 38.4112 45.6414 38.4338 45.6404C39.0082 45.6149 39.5 45.2681 39.7172 44.7357L41.5746 40.1806L46.363 41.3084C46.9228 41.4403 47.4902 41.2407 47.8441 40.7875C48.198 40.3343 48.2541 39.7353 47.9906 39.2241L43.6006 30.7116C43.9376 30.2059 44.4748 29.8485 45.1065 29.7504C47.693 29.3484 49.2406 26.6596 48.2973 24.2238C47.9466 23.318 48.2192 22.3003 48.9758 21.6914C51.0133 20.0513 51.0125 16.9491 48.9758 15.3096C48.2193 14.7008 47.9467 13.683 48.2973 12.7774C49.2425 10.3364 47.6876 7.65188 45.1066 7.25075C44.1468 7.10163 43.4018 6.35663 43.2527 5.397C42.8508 2.8105 40.162 1.26275 37.7261 2.20613C36.8201 2.55688 35.8027 2.28413 35.1937 1.52763C33.5522 -0.511622 30.45 -0.507122 28.8121 1.52763C28.2031 2.28413 27.1856 2.55663 26.2798 2.20613C23.839 1.26088 21.1542 2.81588 20.7532 5.397C20.6041 6.35663 19.8591 7.10163 18.8995 7.25075C16.313 7.65275 14.7655 10.3414 15.7086 12.7774C16.0593 13.683 15.7867 14.7008 15.0301 15.3096C12.9907 16.9511 12.9946 20.0534 15.0296 21.6914ZM25.6807 43.185L24.0316 39.1404C23.7592 38.4726 23.0522 38.1078 22.3498 38.2733L18.0985 39.2746L21.2891 33.0877C22.2948 34.7614 24.3881 35.5275 26.2793 34.7949C27.1848 34.4438 28.2026 34.7168 28.8117 35.4735C28.9796 35.682 29.166 35.8701 29.3661 36.0391L25.6807 43.185ZM41.655 38.2733C40.9531 38.1086 40.2458 38.4728 39.9733 39.1405L38.3242 43.185L34.6388 36.0391C34.839 35.8703 35.0253 35.6821 35.1932 35.4735C35.8023 34.717 36.8201 34.4446 37.7255 34.7949C39.6171 35.5274 41.7102 34.7611 42.7157 33.0877L45.9063 39.2746L41.655 38.2733ZM16.2052 16.7704C17.6005 15.6474 18.1033 13.7706 17.4566 12.1005C16.944 10.7769 17.7871 9.32113 19.1868 9.10363C20.9566 8.82863 22.3305 7.45475 22.6055 5.68488C22.8233 4.28288 24.2812 3.44275 25.6023 3.95463C27.2727 4.60138 29.1492 4.09863 30.2722 2.70338C31.1623 1.5975 32.8445 1.59988 33.7327 2.70338C34.8556 4.09838 36.7323 4.60125 38.4027 3.95463C39.7258 3.442 41.182 4.28513 41.3995 5.68488C41.6745 7.45463 43.0483 8.8285 44.8182 9.10363C46.2207 9.3215 47.06 10.7795 46.5483 12.1005C45.9016 13.7706 46.4045 15.6474 47.7996 16.7704C48.9052 17.6603 48.9031 19.3426 47.7996 20.2308C46.4043 21.3538 45.9015 23.2305 46.5483 24.9008C47.0608 26.2244 46.2177 27.6801 44.8181 27.8976C43.0483 28.1726 41.6745 29.5465 41.3995 31.3164C41.1818 32.7165 39.7262 33.5588 38.4026 33.0465C36.7326 32.4003 34.8557 32.9028 33.7327 34.2979C32.8428 35.4035 31.1605 35.4014 30.2722 34.2979C29.1511 32.905 27.2751 32.3989 25.6022 33.0465C24.2792 33.5593 22.823 32.7163 22.6055 31.3164C22.3305 29.5466 20.9566 28.1728 19.1867 27.8976C17.7842 27.6798 16.945 26.2218 17.4566 24.9008C18.1033 23.2305 17.6005 21.3538 16.2052 20.2308C15.0996 19.3408 15.102 17.6584 16.2052 16.7704Z" fill="#262431"/>
<path d="M20.1872 19.7703C19.6783 19.8656 19.3428 20.3553 19.438 20.8642C20.5673 26.9015 25.8514 31.2835 32.0025 31.2835C39.051 31.2835 44.7854 25.5491 44.7854 18.5006C44.7854 11.4521 39.051 5.71771 32.0025 5.71771C25.8523 5.71771 20.5683 10.0988 19.4383 16.135C19.343 16.6438 19.6783 17.1336 20.1873 17.229C20.6967 17.324 21.186 16.9888 21.2813 16.48C22.2453 11.3305 26.7542 7.59271 32.0025 7.59271C38.0172 7.59271 42.9104 12.486 42.9104 18.5006C42.9104 24.5152 38.0172 29.4085 32.0025 29.4085C26.7534 29.4085 22.2444 25.6702 21.281 20.5196C21.1859 20.0106 20.6963 19.6762 20.1872 19.7703Z" fill="#262431"/>
<path d="M38.906 15.0162L34.7361 14.8314L33.2719 10.9226C32.8326 9.75044 31.1726 9.75069 30.7335 10.9227L29.2694 14.8316L25.0994 15.0163C23.8504 15.0714 23.3345 16.6494 24.315 17.4304L27.58 20.0309L26.4671 24.0539C26.1334 25.2606 27.4764 26.2359 28.5208 25.5461L32.0028 23.2444L35.485 25.5462C36.5255 26.2336 37.8734 25.2646 37.5385 24.0539L36.4256 20.0309L39.6906 17.4304C40.67 16.6501 40.1561 15.0713 38.906 15.0162ZM34.9888 18.7782C34.563 19.1173 34.3818 19.6753 34.5269 20.1997L35.3615 23.2166L32.7501 21.4904C32.5233 21.3406 32.2629 21.2654 32.0028 21.2654C31.7426 21.2654 31.4824 21.3404 31.2553 21.4904L28.6439 23.2166L29.4785 20.1998C29.6238 19.6753 29.4424 19.1173 29.0166 18.7782L26.5681 16.8279L29.6956 16.6894C30.2391 16.6653 30.7138 16.3204 30.9046 15.8109L32.0026 12.8797L33.1008 15.8111C33.2916 16.3204 33.7663 16.6653 34.31 16.6894L37.4371 16.8279L34.9888 18.7782Z" fill="#262431"/>
</g>
<defs>
<clipPath id="clip0">
<rect width="64" height="64" fill="white"/>
</clipPath>
</defs>
</svg>
