<svg width="64" height="64" viewBox="0 0 64 64" fill="none" xmlns="http://www.w3.org/2000/svg">
<path d="M51.7233 28.654H44.6549V20.6516C44.6549 19.364 43.9279 18.2456 42.8643 17.6779C42.8658 17.6494 42.8684 17.6211 42.8684 17.5924L42.8669 16.2337C42.8375 14.105 42.5447 12.9351 40.8875 11.6304L39.432 10.4843C39.2103 10.3096 39.0208 10.1012 38.8643 9.87062C39.8807 9.56062 40.6224 8.61487 40.6224 7.49837V1.58775C40.6224 0.71225 39.9103 0 39.0347 0H29.9548C29.437 0 29.0174 0.419625 29.0174 0.937375C29.0174 1.45513 29.437 1.87475 29.9548 1.87475H38.7475V7.49825C38.7475 7.832 38.476 8.1035 38.1424 8.1035C36.1445 8.1035 25.402 8.1035 24.139 8.1035C23.8053 8.1035 23.5338 7.83187 23.5338 7.49825V1.87487H25.5724C26.0902 1.87487 26.5098 1.45525 26.5098 0.9375C26.5098 0.41975 26.0902 0 25.5724 0H23.2468C22.3713 0 21.6589 0.71225 21.6589 1.58775V7.49825C21.6589 8.68787 22.5012 9.68375 23.6204 9.92288C23.5764 11.3626 21.918 13.3 21.4437 17.2792H20.9985C19.1392 17.2792 17.6265 18.792 17.6265 20.6514V28.6537H12.2773C9.00466 28.6537 6.34229 31.3161 6.34229 34.5887V50.6806C6.34229 51.1984 6.76191 51.618 7.27966 51.618C7.79741 51.618 8.21704 51.1984 8.21704 50.6806V43.1244C9.27954 44.1229 10.7075 44.7364 12.2772 44.7364H12.6447V45.7366C12.6447 47.953 14.4478 49.7561 16.6642 49.7561C18.8804 49.7561 20.6835 47.953 20.6835 45.7366V44.7364H43.3169V45.7366C43.3169 47.953 45.12 49.7561 47.3363 49.7561C49.5525 49.7561 51.3557 47.953 51.3557 45.7366V44.7364H51.7233C53.2928 44.7364 54.7209 44.1229 55.7834 43.1244V58.065C55.7834 60.3037 53.962 62.1251 51.7233 62.1251H12.2773C10.0385 62.1251 8.21716 60.3037 8.21716 58.065V55.0779C8.21716 54.5601 7.79754 54.1405 7.27979 54.1405C6.76204 54.1405 6.34241 54.5601 6.34241 55.0779V58.065C6.34241 61.3376 9.00479 64 12.2774 64H51.7234C54.996 64 57.6584 61.3376 57.6584 58.065C57.6584 57.003 57.6584 36.2861 57.6584 34.5889C57.6582 31.3164 54.9958 28.654 51.7233 28.654ZM23.2022 19.2221C23.2022 14.3779 25.428 12.251 25.496 9.9785H36.8183C37.1143 10.7534 37.6147 11.4394 38.2723 11.9572L39.7278 13.1034C40.7659 13.9209 40.9668 14.4224 40.9922 16.2476L40.9932 17.2794L40.6099 17.2795C39.3097 17.2795 38.2513 18.3374 38.2509 19.6379L38.2492 24.9504C38.2492 25.3172 37.9507 25.6157 37.5838 25.6157H36.5588C36.1919 25.6157 35.8934 25.3174 35.8934 24.9504V24.3911C35.8934 23.1519 34.0185 23.1499 34.0185 24.3911C34.0185 24.758 33.72 25.0566 33.3532 25.0566H32.3282C31.9613 25.0566 31.6628 24.7581 31.6628 24.3911V23.5748C31.6628 22.3355 29.7879 22.3335 29.7879 23.5748C29.7879 23.9416 29.4894 24.2401 29.1225 24.2401H28.0975C27.7307 24.2401 27.4322 23.9416 27.4322 23.5748V22.5475C27.4322 21.3083 25.5573 21.3063 25.5573 22.5475C25.5573 22.9144 25.2588 23.2129 24.8919 23.2129H23.8669C23.5 23.2129 23.2015 22.9144 23.2015 22.5474V19.2221H23.2022ZM19.5014 20.6515C19.5014 19.8259 20.1732 19.1541 20.9987 19.1541H21.3287C21.3263 19.7535 21.3277 21.5495 21.3273 22.5471C21.3273 23.9479 22.4668 25.0875 23.8675 25.0875H24.8925C25.2562 25.0875 25.6022 25.0107 25.9152 24.8725C26.3589 25.6159 27.1713 26.1147 28.098 26.1147H29.123C29.5278 26.1147 29.9107 26.0195 30.2507 25.8505C30.7108 26.5036 31.4708 26.9312 32.3287 26.9312H33.3537C33.8152 26.9312 34.2485 26.8075 34.6219 26.5914C35.0882 27.141 35.7837 27.4904 36.5593 27.4904H37.5843C38.9849 27.4904 40.1245 26.3509 40.1245 24.9504L40.1263 19.6381C40.1264 19.3713 40.3435 19.1541 40.6104 19.1541L41.1912 19.154H41.2833C42.1089 19.154 42.7805 19.8258 42.7805 20.6514V28.6537H19.5014V20.6515ZM18.8088 45.7369C18.8088 46.9194 17.8468 47.8815 16.6643 47.8815C15.4818 47.8815 14.5197 46.9194 14.5197 45.7369V43.27H18.8088V45.7369ZM18.8088 41.3951H14.5197V39.8865C14.5197 39.7929 14.5958 39.7168 14.6894 39.7168H18.6389C18.7325 39.7168 18.8087 39.7929 18.8087 39.8865V41.3951H18.8088ZM49.4808 45.7369C49.4808 46.9194 48.5188 47.8815 47.3363 47.8815C46.1538 47.8815 45.1918 46.9194 45.1918 45.7369V43.27H49.4808V45.7369ZM49.4808 41.3951H45.1918V39.8865C45.1918 39.7929 45.2679 39.7168 45.3615 39.7168H49.3109C49.4045 39.7168 49.4807 39.7929 49.4807 39.8865V41.3951H49.4808ZM55.7834 38.8015C55.7834 41.0404 53.962 42.8618 51.7233 42.8618H51.3557C51.3557 41.7805 51.3557 41.0019 51.3557 39.8865C51.3557 38.759 50.4385 37.8419 49.311 37.8419H45.3615C44.234 37.8419 43.3169 38.759 43.3169 39.8865V42.8618H20.6837C20.6837 41.7805 20.6837 41.0019 20.6837 39.8865C20.6837 38.759 19.7665 37.8419 18.639 37.8419H14.6895C13.562 37.8419 12.6449 38.759 12.6449 39.8865V42.8618H12.2774C10.0387 42.8618 8.21729 41.0404 8.21729 38.8015V34.589C8.21729 32.3503 10.0387 30.5289 12.2774 30.5289H51.7234C53.9622 30.5289 55.7835 32.3503 55.7835 34.589V38.8015H55.7834Z" fill="#262431"/>
</svg>
