<svg width="64" height="64" viewBox="0 0 64 64" fill="none" xmlns="http://www.w3.org/2000/svg">
<g clip-path="url(#clip0)">
<path d="M57.5341 57.3H57.5423C58.0631 57.3 58.4875 56.8801 58.4921 56.3584C58.4958 55.9232 58.5032 55.0315 58.5112 53.9394H59.0236C59.5482 53.9394 59.9735 53.5141 59.9735 52.9895C59.9735 52.4649 59.5482 52.0396 59.0236 52.0396H58.524C58.5412 49.225 58.5517 46.0872 58.5173 45.6739C58.4531 44.9021 57.9991 44.2757 57.3608 44.078C57.0592 43.9846 56.2783 43.864 55.5476 44.7605C54.9013 45.5532 51.6806 51.3721 51.0415 52.5306C50.8792 52.8249 50.8843 53.183 51.0553 53.4724C51.2261 53.7617 51.5372 53.9394 51.8732 53.9394H56.6113C56.6053 54.7911 56.5987 55.6111 56.5925 56.342C56.588 56.8665 57.0093 57.2954 57.5341 57.3ZM53.4857 52.0396C54.735 49.7971 55.9941 47.5885 56.6375 46.5422C56.645 47.6389 56.6371 49.8029 56.6237 52.0396H53.4857Z" fill="#262431"/>
<path d="M46.6988 50.4098C44.8911 52.9927 43.8119 54.4055 43.2322 55.1647C42.5348 56.0779 42.2999 56.3854 42.4684 56.9334C42.5649 57.2472 42.8037 57.4883 43.1236 57.5948C43.5822 57.7478 47.8912 57.6783 49.2386 57.6614C49.7631 57.6548 50.1829 57.2242 50.1763 56.6997C50.1698 56.175 49.7354 55.7543 49.2146 55.7618C47.7846 55.7798 46.2537 55.79 45.1457 55.7875C45.7851 54.9435 46.7818 53.6042 48.2552 51.499C48.8724 50.6172 49.6937 49.1739 49.6937 48.0419C49.6937 45.9115 47.9606 44.1784 45.8303 44.1784C43.9883 44.1784 42.3939 45.4888 42.0394 47.2942C41.9384 47.8089 42.2737 48.3082 42.7884 48.4093C43.3032 48.5103 43.8024 48.175 43.9036 47.6603C44.0837 46.7435 44.8939 46.0782 45.8304 46.0782C46.8951 46.0782 47.7644 46.9297 47.7934 47.9874C47.7774 48.0349 47.8313 48.7915 46.6988 50.4098Z" fill="#262431"/>
<path d="M56.5359 31.0534C56.229 30.6277 55.635 30.5318 55.21 30.8385L54.0074 31.7058C54.0458 31.1454 54.0663 30.5832 54.0663 30.0218C54.0663 16.6102 43.155 5.69891 29.7434 5.69891C16.3317 5.69891 5.42041 16.6102 5.42041 30.0218C5.42041 43.4334 16.3317 54.3447 29.7434 54.3447C31.4417 54.3447 33.1377 54.1687 34.7848 53.8213C35.2982 53.713 35.6265 53.2092 35.5183 52.6959C35.4099 52.1825 34.906 51.8543 34.3929 51.9624C33.1814 52.2179 31.9408 52.371 30.6932 52.4233V50.8575C30.6932 50.3329 30.2679 49.9077 29.7433 49.9077C29.2187 49.9077 28.7934 50.3329 28.7934 50.8575V52.4234C23.3259 52.1944 18.3585 49.9989 14.5815 46.5267L15.6817 45.4264C16.0525 45.0554 16.0525 44.454 15.6815 44.083C15.3108 43.7122 14.7093 43.7122 14.3383 44.083L13.2382 45.1832C9.76578 41.4062 7.57041 36.4389 7.34141 30.9714H8.90754C9.43216 30.9714 9.85741 30.5462 9.85741 30.0215C9.85741 29.4969 9.43216 29.0717 8.90754 29.0717H7.34153C7.57053 23.6042 9.76603 18.6368 13.2383 14.8599L14.3384 15.96C14.7094 16.3309 15.3107 16.331 15.6817 15.96C16.0527 15.589 16.0527 14.9877 15.6818 14.6167L14.5817 13.5164C18.3587 10.044 23.326 7.84866 28.7935 7.61966V9.18554C28.7935 9.71016 29.2188 10.1354 29.7434 10.1354C30.268 10.1354 30.6933 9.71016 30.6933 9.18554V7.62004C36.1608 7.84904 41.1282 10.0445 44.905 13.5168L43.8048 14.617C43.4339 14.9879 43.4339 15.5894 43.8048 15.9603C44.1759 16.3313 44.7772 16.3312 45.1482 15.9603L46.2483 14.8602C49.9208 18.8548 52.1665 24.1807 52.1665 30.0218C52.1665 30.4985 52.1508 30.9758 52.1208 31.4518L51.1822 30.3788C50.8367 29.9838 50.2365 29.9439 49.8419 30.2893C49.447 30.6347 49.4069 31.2348 49.7523 31.6295L52.0353 34.2395C52.3298 34.6838 52.9537 34.8079 53.3967 34.4884L56.3212 32.3795C56.7465 32.0725 56.8428 31.4788 56.5359 31.0534Z" fill="#262431"/>
<path d="M40.5507 29.072H33.4664C33.1201 27.7155 32.05 26.6454 30.6935 26.2991V15.2887C30.6935 14.7641 30.2682 14.3389 29.7436 14.3389C29.219 14.3389 28.7937 14.7641 28.7937 15.2887V26.2991C27.1332 26.723 25.9019 28.2312 25.9019 30.0219C25.9019 32.1402 27.6252 33.8636 29.7436 33.8636C31.5342 33.8636 33.0425 32.6321 33.4664 30.9717H40.5507C41.0754 30.9717 41.5006 30.5465 41.5006 30.0219C41.5005 29.4972 41.0754 29.072 40.5507 29.072ZM29.7436 31.9639C28.6727 31.9639 27.8015 31.0926 27.8015 30.0217C27.8015 28.9509 28.6726 28.0796 29.7436 28.0796C30.8145 28.0796 31.6857 28.9509 31.6857 30.0217C31.6856 31.0926 30.8145 31.9639 29.7436 31.9639Z" fill="#262431"/>
<path d="M63.0501 49.6624C63.5747 49.6624 64 49.2372 64 48.7126V43.4212C64 40.3208 61.5669 37.7789 58.5099 37.6027C59.1578 35.1381 59.4866 32.5939 59.4866 30.0217C59.4866 13.5838 46.1839 0.278442 29.7434 0.278442C13.3051 0.278442 0 13.5812 0 30.0217C0 46.4598 13.3029 59.7649 29.7434 59.7649C32.524 59.7649 35.2681 59.3814 37.9185 58.6249C38.2803 61.4943 40.734 63.7213 43.7 63.7213H58.171C61.3853 63.7213 64.0001 61.1063 64.0001 57.8922V53.1532C64.0001 52.6286 63.5749 52.2033 63.0503 52.2033C62.5256 52.2033 62.1004 52.6286 62.1004 53.1532V57.8922C62.1004 60.0588 60.3376 61.8217 58.1709 61.8217H43.6999C41.5332 61.8217 39.7704 60.0589 39.7704 57.8922C39.7704 55.3947 39.7704 45.4306 39.7704 43.4212C39.7704 41.2544 41.5331 39.4917 43.6999 39.4917H57.2518H57.2607H58.1709C60.3375 39.4917 62.1004 41.2544 62.1004 43.4212V48.7126C62.1004 49.2372 62.5255 49.6624 63.0501 49.6624ZM37.8708 43.4213V56.6581C35.2439 57.4588 32.5134 57.8653 29.7434 57.8653C14.3551 57.8653 1.89975 45.4122 1.89975 30.0217C1.89975 14.6334 14.353 2.17807 29.7434 2.17807C45.1315 2.17807 57.5869 14.6312 57.5869 30.0217C57.5869 32.5954 57.2356 35.1384 56.5439 37.5921H43.6999C40.4856 37.5922 37.8708 40.2071 37.8708 43.4213Z" fill="#262431"/>
</g>
<defs>
<clipPath id="clip0">
<rect width="64" height="64" fill="white"/>
</clipPath>
</defs>
</svg>
