<svg width="64" height="64" viewBox="0 0 64 64" fill="none" xmlns="http://www.w3.org/2000/svg">
<g clip-path="url(#clip0)">
<path d="M52.4375 25.5571H11.5632C11.0451 25.5571 10.625 25.9771 10.625 26.4953C10.625 27.0136 11.045 27.4336 11.5632 27.4336H52.4375C52.9556 27.4336 53.3757 27.0136 53.3757 26.4953C53.3757 25.9771 52.9556 25.5571 52.4375 25.5571Z" fill="#262431"/>
<path d="M37.8799 30.2898H11.5632C11.0451 30.2898 10.625 30.7098 10.625 31.228C10.625 31.7463 11.045 32.1663 11.5632 32.1663H37.8799C38.398 32.1663 38.8181 31.7463 38.8181 31.228C38.818 30.7098 38.398 30.2898 37.8799 30.2898Z" fill="#262431"/>
<path d="M34.8775 36.8989C35.3956 36.8989 35.8158 36.4789 35.8158 35.9607C35.8158 35.4424 35.3957 35.0224 34.8775 35.0224H11.5632C11.0451 35.0224 10.625 35.4424 10.625 35.9607C10.625 36.4789 11.045 36.8989 11.5632 36.8989H34.8775Z" fill="#262431"/>
<path d="M38.8411 20.8873C39.9557 20.8873 40.8624 19.9804 40.8624 18.8659V17.2164C40.8624 16.1018 39.9557 15.1951 38.8411 15.1951H25.1596C24.0449 15.1951 23.1382 16.1019 23.1382 17.2164V18.8659C23.1382 19.9806 24.0449 20.8873 25.1596 20.8873H38.8411ZM25.0147 18.8659V17.2164C25.0147 17.1364 25.0797 17.0714 25.1597 17.0714H38.8412C38.9211 17.0714 38.9862 17.1364 38.9862 17.2164V18.8659C38.9862 18.9459 38.9212 19.0109 38.8412 19.0109H25.1596C25.0797 19.0109 25.0147 18.9459 25.0147 18.8659Z" fill="#262431"/>
<path d="M35.3254 44.1335H11.7469C11.1472 41.6906 9.27394 39.784 6.84232 39.1417V30.3972C6.84232 29.879 6.42232 29.459 5.90407 29.459C5.38582 29.459 4.96582 29.879 4.96582 30.3972V39.173C4.96582 40.0115 5.52682 40.7411 6.32982 40.9471C8.1222 41.4076 9.50257 42.8122 9.93232 44.6129C10.1286 45.4355 10.8616 46.0099 11.7148 46.0099H35.3253C35.8434 46.0099 36.2636 45.5898 36.2636 45.0716C36.2637 44.5535 35.8436 44.1335 35.3254 44.1335Z" fill="#262431"/>
<path d="M57.6698 15.4625C55.8776 15.002 54.4971 13.5974 54.0674 11.7968C53.8712 10.9742 53.1382 10.3998 52.2849 10.3998H11.7147C10.8614 10.3998 10.1284 10.9742 9.93232 11.7967C9.50257 13.5973 8.12219 15.0019 6.33007 15.4624C5.52682 15.6687 4.96582 16.3982 4.96582 17.2367V26.011C4.96582 26.5293 5.38582 26.9493 5.90407 26.9493C6.42232 26.9493 6.84232 26.5293 6.84232 26.011V17.2682C9.27369 16.6258 11.1471 14.7193 11.7469 12.2763H52.2529C52.8528 14.7192 54.7259 16.6258 57.1576 17.268V33.9279C57.1576 34.4462 57.5776 34.8661 58.0958 34.8661C58.6141 34.8661 59.0341 34.4462 59.0341 33.9279V17.2367C59.0339 16.3983 58.4728 15.6687 57.6698 15.4625Z" fill="#262431"/>
<path d="M59.6773 5.5509H4.32275C1.93925 5.5509 0 7.49015 0 9.87378V46.536C0 48.9197 1.93925 50.8589 4.32275 50.8589H42.1626L40.6239 54.8839C40.2088 55.9697 41.2015 57.0688 42.3243 56.7663L44.0538 56.2994L45.0326 57.8025C45.6676 58.7777 47.1401 58.6193 47.5548 57.534L48.8673 54.1007L50.1799 57.534C50.5953 58.6209 52.0679 58.7765 52.702 57.8025L53.6809 56.2994L55.4103 56.7663C56.5323 57.0693 57.526 55.97 57.1108 54.8838L55.572 50.8589H59.6771C62.0608 50.8589 63.9999 48.9197 63.9999 46.536V9.87378C64 7.49015 62.0608 5.5509 59.6773 5.5509ZM40.8195 39.9393C40.3515 39.538 40.6036 38.78 41.2123 38.7309C42.7801 38.6043 43.8645 37.1089 43.5009 35.5807C43.3595 34.9869 44.0024 34.5127 44.5289 34.8339C45.8718 35.653 47.628 35.0807 48.232 33.6307C48.4673 33.0657 49.266 33.0625 49.5026 33.6307C50.1071 35.0823 51.865 35.6523 53.2059 34.8339C53.7281 34.5153 54.3763 34.982 54.2338 35.5807C53.8696 37.1108 54.9564 38.6044 56.5225 38.7309C57.1339 38.7803 57.3813 39.5395 56.9151 39.9393C55.721 40.963 55.7226 42.8105 56.9151 43.833C57.3831 44.2343 57.131 44.9923 56.5224 45.0414C54.9545 45.168 53.8701 46.6634 54.2338 48.1917C54.3759 48.7885 53.7303 49.258 53.2059 48.9384C51.8633 48.1194 50.1065 48.6915 49.5028 50.1417C49.2683 50.7048 48.4691 50.7109 48.2321 50.1417C47.628 48.6912 45.8698 48.1203 44.529 48.9385C44.005 49.2578 43.3588 48.789 43.501 48.1917C43.8651 46.6615 42.7784 45.1679 41.2123 45.0414C40.6009 44.992 40.3535 44.2328 40.8196 43.833C42.0135 42.8093 42.012 40.9618 40.8195 39.9393ZM46.1196 56.0332L45.4465 54.9994C45.1089 54.4809 44.4805 54.2412 43.8829 54.4019L42.6944 54.7227L44.1475 50.9218C44.6128 50.9254 45.0806 50.7999 45.5063 50.5403C45.8664 50.3205 46.3375 50.4733 46.5 50.8633C46.7308 51.4173 47.1243 51.8514 47.6146 52.123L46.1196 56.0332ZM53.8516 54.4019C53.254 54.2405 52.6259 54.481 52.2883 54.9994L51.615 56.0332L50.1201 52.123C50.6105 51.8513 51.004 51.4173 51.2349 50.8633C51.3968 50.4744 51.8671 50.3199 52.2286 50.5404C52.6543 50.8002 53.1221 50.9255 53.5873 50.9219L55.0404 54.7228L53.8516 54.4019ZM62.1236 46.536C62.1236 47.8849 61.0261 48.9824 59.6773 48.9824H56.056C56.1533 48.5924 56.1588 48.1754 56.0593 47.7573C55.9955 47.4894 56.1025 47.2889 56.172 47.1934C56.2415 47.0978 56.399 46.934 56.6734 46.9118C58.9456 46.7285 59.8693 43.8943 58.1366 42.4087C57.8163 42.134 57.8159 41.6388 58.1366 41.3638C59.8669 39.8799 58.9484 37.0442 56.6734 36.8607C56.2526 36.8265 55.9614 36.4262 56.0593 36.0152C56.587 33.7979 54.1771 32.0432 52.2285 33.2322C51.8685 33.4519 51.3971 33.2992 51.2349 32.9092C51.2348 32.9092 51.2348 32.9092 51.2348 32.9092C50.3583 30.8049 47.3775 30.8022 46.4998 32.9092C46.3375 33.2985 45.8668 33.4523 45.506 33.2322C43.5589 32.0437 41.1473 33.7967 41.6753 36.0152C41.7729 36.4255 41.4824 36.8265 41.0613 36.8607C38.7889 37.0439 37.8654 39.8782 39.598 41.3638C39.9184 41.6385 39.9188 42.1337 39.598 42.4087C37.8676 43.8927 38.7864 46.7284 41.0613 46.9118C41.4819 46.9459 41.7733 47.3462 41.6754 47.7573C41.5759 48.1754 41.5814 48.5925 41.6786 48.9824H4.32275C2.97388 48.9824 1.87638 47.8849 1.87638 46.536V9.87378C1.87638 8.5249 2.97388 7.4274 4.32275 7.4274H59.6771C61.026 7.4274 62.1235 8.5249 62.1235 9.87378V46.536H62.1236Z" fill="#262431"/>
<path d="M48.8673 47.3791C51.896 47.3791 54.3601 44.9151 54.3601 41.8863C54.3601 38.8576 51.896 36.3934 48.8673 36.3934C45.8385 36.3934 43.3745 38.8576 43.3745 41.8863C43.3745 44.9151 45.8386 47.3791 48.8673 47.3791ZM48.8673 38.2698C50.8614 38.2698 52.4838 39.8922 52.4838 41.8863C52.4838 43.8803 50.8614 45.5027 48.8673 45.5027C46.8733 45.5027 45.2509 43.8803 45.2509 41.8863C45.2509 39.8921 46.8733 38.2698 48.8673 38.2698Z" fill="#262431"/>
</g>
<defs>
<clipPath id="clip0">
<rect width="64" height="64" fill="white"/>
</clipPath>
</defs>
</svg>
