<svg width="19" height="19" viewBox="0 0 19 19" fill="none" xmlns="http://www.w3.org/2000/svg">
<path d="M9.49979 0C5.46261 0 2.17822 3.28482 2.17822 7.32244C2.17822 10.2075 3.38609 13.1258 5.67124 15.762C7.37802 17.731 9.06949 18.8465 9.14072 18.8931C9.24976 18.9644 9.37482 19 9.49988 19C9.62485 19 9.7499 18.9644 9.85903 18.8931C9.93018 18.8465 11.6219 17.731 13.3287 15.7621C15.614 13.1258 16.822 10.2075 16.822 7.32244C16.8219 3.28482 13.5371 0 9.49979 0ZM9.49979 17.5377C8.15322 16.5343 3.49093 12.6725 3.49093 7.32244C3.49093 4.00865 6.18644 1.3127 9.49979 1.3127C12.8134 1.3127 15.5092 4.00865 15.5092 7.32244C15.5092 12.6725 10.8465 16.5343 9.49979 17.5377Z" fill="#25223A"/>
<path d="M9.50022 4.41504C7.89784 4.41504 6.59424 5.71873 6.59424 7.32128C6.59424 8.92339 7.89784 10.2268 9.50022 10.2268C11.1026 10.2268 12.4061 8.92339 12.4061 7.32128C12.4061 5.71882 11.1025 4.41504 9.50022 4.41504ZM9.50022 8.91412C8.62167 8.91412 7.90694 8.19957 7.90694 7.32128C7.90694 6.44256 8.62167 5.72774 9.50022 5.72774C10.3787 5.72774 11.0934 6.44256 11.0934 7.32128C11.0934 8.19957 10.3787 8.91412 9.50022 8.91412Z" fill="#25223A"/>
</svg>
