<svg width="19" height="19" viewBox="0 0 19 19" fill="none" xmlns="http://www.w3.org/2000/svg">
<path d="M15.6536 5.54906L9.50081 10.9709L3.34668 5.54898C3.10164 5.3331 2.72812 5.35682 2.51231 5.60171C2.29659 5.84668 2.32008 6.2202 2.56512 6.43608L9.11011 12.2023C9.2218 12.3007 9.36138 12.3499 9.50089 12.3499C9.6404 12.3499 9.78006 12.3007 9.89175 12.2023L16.4354 6.436C16.6803 6.2202 16.7039 5.8466 16.488 5.60163C16.2721 5.3569 15.8986 5.33325 15.6536 5.54906Z" fill="#25223A"/>
<path d="M17.2266 3.03687H1.77341C0.795591 3.03687 0 3.83238 0 4.81028V14.1898C0 15.1677 0.795591 15.9632 1.77341 15.9632H17.2266C18.2044 15.9632 19 15.1677 19 14.1898V4.81028C19 3.83246 18.2044 3.03687 17.2266 3.03687ZM17.8177 14.1898C17.8177 14.5157 17.5526 14.7809 17.2266 14.7809H1.77341C1.44742 14.7809 1.18227 14.5157 1.18227 14.1898V4.81028C1.18227 4.48436 1.44742 4.21914 1.77341 4.21914H17.2266C17.5526 4.21914 17.8177 4.48436 17.8177 4.81028V14.1898Z" fill="#25223A"/>
</svg>
