<svg width="19" height="19" viewBox="0 0 19 19" fill="none" xmlns="http://www.w3.org/2000/svg">
<g clip-path="url(#clip0)">
<path d="M16.2461 2.48897C14.641 0.883825 12.5067 -8.97763e-05 10.2369 6.83908e-09C9.86488 6.83908e-09 9.56348 0.301492 9.56348 0.673374C9.56348 1.04526 9.86497 1.34675 10.2369 1.34675C12.1471 1.34666 13.943 2.09051 15.2938 3.4413C16.6447 4.79209 17.3885 6.58811 17.3884 8.49842C17.3884 8.87031 17.6898 9.1718 18.0618 9.1718C18.4337 9.1718 18.7352 8.87031 18.7352 8.49851C18.7353 6.22835 17.8514 4.09411 16.2461 2.48897Z" fill="#191B24"/>
<path d="M13.4761 8.49854C13.4761 8.87043 13.7776 9.17192 14.1496 9.17183C14.5215 9.17183 14.8229 8.87034 14.8229 8.49845C14.8227 5.97016 12.7654 3.91296 10.2369 3.9126C10.2369 3.9126 10.2369 3.9126 10.2369 3.9126C9.86497 3.9126 9.56357 4.214 9.56348 4.58588C9.56348 4.95776 9.86488 5.25926 10.2368 5.25935C12.0228 5.25961 13.476 6.71267 13.4761 8.49854Z" fill="#191B24"/>
<path d="M11.9859 11.9319C10.9595 11.8787 10.4366 12.6421 10.1859 13.0088C9.97586 13.3157 10.0545 13.7347 10.3615 13.9447C10.6685 14.1547 11.0875 14.0761 11.2975 13.7691C11.5938 13.3359 11.728 13.2678 11.9101 13.2764C12.4928 13.3449 14.7881 15.0269 15.018 15.5528C15.0756 15.7077 15.0735 15.8595 15.0116 16.0442C14.7706 16.7594 14.3717 17.262 13.8578 17.4976C13.3696 17.7215 12.771 17.7012 12.1272 17.4392C9.72303 16.4593 7.62265 15.0918 5.88445 13.3746C5.88373 13.3739 5.88301 13.3733 5.88238 13.3726C4.16878 11.6361 2.80381 9.53836 1.82553 7.13792C1.56345 6.49355 1.54316 5.89488 1.76699 5.40673C2.00258 4.89281 2.50519 4.4939 3.21977 4.25319C3.40508 4.19106 3.55664 4.18909 3.71008 4.24619C4.23791 4.47684 5.91982 6.77206 5.9877 7.34829C5.99739 7.53719 5.92871 7.67132 5.49586 7.96707C5.18881 8.1768 5.10989 8.59582 5.31971 8.90288C5.52944 9.20994 5.94837 9.28877 6.25552 9.07903C6.62237 8.82854 7.38553 8.30708 7.33256 7.27718C7.2742 6.2014 5.18153 3.35249 4.18162 2.98483C3.73692 2.81909 3.26915 2.81621 2.79079 2.97674C1.71447 3.3392 0.937124 3.98546 0.542797 4.84558C0.16032 5.68002 0.172441 6.64816 0.578261 7.64583C1.62522 10.2147 3.09003 12.4624 4.93194 14.3268C4.93642 14.3313 4.941 14.3358 4.94567 14.3402C6.80867 16.1787 9.05379 17.6408 11.6193 18.6865C12.133 18.8955 12.6389 19.0001 13.1228 19.0001C13.5783 19.0001 14.0145 18.9074 14.4191 18.7219C15.2793 18.3277 15.9254 17.5504 16.2882 16.4734C16.4483 15.9959 16.4457 15.5283 16.2812 15.0857C15.9123 14.0831 13.0634 11.9904 11.9859 11.9319Z" fill="#191B24"/>
</g>
<defs>
<clipPath id="clip0">
<rect width="19" height="19" fill="white"/>
</clipPath>
</defs>
</svg>
