<svg width="64" height="64" viewBox="0 0 64 64" fill="none" xmlns="http://www.w3.org/2000/svg">
<g clip-path="url(#clip0)">
<path d="M16.4993 37.0006C17.0172 37.0006 17.4369 36.5809 17.4369 36.063C17.4369 35.5451 17.0172 35.1254 16.4993 35.1254H12.0812C11.5633 35.1254 11.1436 35.5451 11.1436 36.063C11.1436 36.5809 11.5633 37.0006 12.0812 37.0006H16.4993Z" fill="#262431"/>
<path d="M42.3357 37.0006C42.8536 37.0006 43.2734 36.5809 43.2734 36.063C43.2734 35.5451 42.8536 35.1254 42.3357 35.1254H37.9176C37.3997 35.1254 36.98 35.5451 36.98 36.063C36.98 36.5809 37.3997 37.0006 37.9176 37.0006H42.3357Z" fill="#262431"/>
<path d="M24.6113 40.7508C24.1463 40.4465 23.5108 40.6087 23.256 41.1226C23.0433 41.5518 23.21 42.0766 23.6118 42.3377C24.646 43.01 25.3684 43.2263 26.2709 43.2882V44.0527C26.2709 44.5661 26.6665 45.0138 27.1796 45.0292C27.7106 45.0452 28.1461 44.6195 28.1461 44.0921V43.204C29.9439 42.7981 31.0981 41.285 31.349 39.7925C31.6691 37.8882 30.6738 36.2329 28.8131 35.5751C28.5938 35.4976 28.3699 35.4167 28.1461 35.3327V31.5991C28.6684 31.7519 28.9749 32.0136 28.9971 32.0332L29.181 32.1807C29.5644 32.4882 30.1203 32.4466 30.4535 32.0854C30.8291 31.678 30.7679 31.0381 30.3269 30.7026C29.6993 30.2252 29.0455 29.8331 28.1461 29.6792V29.0012C28.1461 28.4879 27.7505 28.0401 27.2374 28.0247C26.7064 28.0087 26.2709 28.4345 26.2709 28.9619V29.7477C26.171 29.7715 26.0701 29.7974 25.9674 29.8284C24.7376 30.1987 23.8191 31.25 23.5701 32.5717C23.3424 33.7802 23.7319 34.9475 24.5865 35.6177C25.0176 35.9558 25.5496 36.2657 26.2709 36.5907V41.4078C25.6785 41.3503 25.276 41.1855 24.6113 40.7508ZM25.7438 34.1421C25.4466 33.9091 25.3168 33.4289 25.4129 32.9189C25.4943 32.4869 25.7614 31.9747 26.2709 31.7184V34.4911C26.0754 34.3783 25.8969 34.2622 25.7438 34.1421ZM28.1881 37.3432C29.6518 37.8606 29.5621 39.1107 29.4996 39.4816C29.3836 40.1717 28.9236 40.9017 28.146 41.2406V37.3281C28.1604 37.3332 28.1738 37.3381 28.1881 37.3432Z" fill="#262431"/>
<path d="M48.821 27.9595C47.3424 27.8307 46.1842 26.5656 46.1842 25.0772C46.1842 24.4526 45.677 23.9443 45.0538 23.9443H9.51291C8.89328 23.9443 8.38216 24.4453 8.38253 25.0792C8.38253 26.5656 7.22429 27.8307 5.74616 27.9595C5.16929 28.0093 4.71741 28.5038 4.71741 29.0851V33.8683C4.71741 34.3862 5.13716 34.806 5.65504 34.806C6.17291 34.806 6.59266 34.3862 6.59266 33.8683V29.7166C8.45653 29.2701 9.89578 27.7125 10.1988 25.8196H44.3678C44.6702 27.7117 46.1095 29.2697 47.9743 29.7165V42.4967C45.8308 43.0101 44.2609 44.9872 44.3102 47.2343H10.2567C10.302 44.9725 8.72653 43.008 6.59254 42.4967V38.2521C6.59254 37.7342 6.17279 37.3145 5.65491 37.3145C5.13704 37.3145 4.71729 37.7342 4.71729 38.2521V43.1281C4.71729 43.7093 5.16916 44.2038 5.74566 44.2537C7.22429 44.3825 8.38253 45.6476 8.38253 47.134C8.38253 47.3377 8.36066 47.5423 8.31754 47.7425C8.16604 48.4465 8.70279 49.1095 9.42191 49.1095H45.1447C45.8634 49.1095 46.4007 48.4471 46.2489 47.742C46.2059 47.5425 46.184 47.3378 46.184 47.134C46.184 45.6476 47.3423 44.3825 48.8204 44.2537C49.3973 44.2038 49.8492 43.7093 49.8492 43.1281V29.085C49.8494 28.5037 49.3974 28.0092 48.821 27.9595Z" fill="#262431"/>
<path d="M63.0624 26.2207C63.5802 26.2207 64 25.801 64 25.2831V13.516C64 11.7372 62.5529 10.2901 60.7741 10.2901H12.6597C10.881 10.2901 9.43388 11.7372 9.43388 13.516V14.8171H7.94275C6.164 14.8171 4.71688 16.2642 4.71688 18.043V19.3441H3.22563C1.44713 19.3441 0 20.7912 0 22.57V50.484C0 52.2627 1.44712 53.7099 3.22575 53.7099H51.3402C53.119 53.7099 54.5661 52.2627 54.5661 50.484V49.1829H56.0573C57.836 49.1829 59.2831 47.7357 59.2831 45.957V44.6559H60.7743C62.553 44.6559 64.0001 43.2087 64.0001 41.43V29.7497C64.0001 29.2319 63.5804 28.8121 63.0625 28.8121C62.5446 28.8121 62.1249 29.2319 62.1249 29.7497V41.43C62.1249 42.1747 61.519 42.7806 60.7743 42.7806H59.2831V18.043C59.2831 16.2642 57.836 14.8171 56.0573 14.8171H11.3091V13.516C11.3091 12.7712 11.915 12.1654 12.6597 12.1654H60.7741C61.5189 12.1654 62.1247 12.7712 62.1247 13.516V25.2831C62.1247 25.801 62.5445 26.2207 63.0624 26.2207ZM52.6909 50.4839C52.6909 51.2286 52.085 51.8345 51.3402 51.8345H3.22575C2.481 51.8345 1.87525 51.2286 1.87525 50.4839V22.57C1.87525 21.8252 2.48112 21.2194 3.22575 21.2194H51.3402C52.085 21.2194 52.6909 21.8252 52.6909 22.57V50.4839ZM57.4079 18.043V45.957C57.4079 46.7017 56.802 47.3076 56.0573 47.3076H54.5661V22.57C54.5661 20.7912 53.119 19.3441 51.3402 19.3441H6.59212V18.043C6.59212 17.2982 7.198 16.6924 7.94275 16.6924H56.0571C56.8019 16.6924 57.4079 17.2982 57.4079 18.043Z" fill="#262431"/>
</g>
<defs>
<clipPath id="clip0">
<rect width="64" height="64" fill="white"/>
</clipPath>
</defs>
</svg>
