<svg width="61" height="61" viewBox="0 0 61 61" fill="none" xmlns="http://www.w3.org/2000/svg">
<path fill-rule="evenodd" clip-rule="evenodd" d="M5.08325 15.2503C5.08325 13.8466 6.22119 12.7087 7.62492 12.7087H53.3749C54.7786 12.7087 55.9166 13.8466 55.9166 15.2503C55.9166 16.654 54.7786 17.792 53.3749 17.792H7.62492C6.22119 17.792 5.08325 16.654 5.08325 15.2503Z" fill="#FF313A"/>
<path fill-rule="evenodd" clip-rule="evenodd" d="M25.4166 7.62533C24.7425 7.62533 24.096 7.89311 23.6194 8.36976C23.1427 8.84642 22.8749 9.4929 22.8749 10.167V12.7087H38.1249V10.167C38.1249 9.4929 37.8571 8.84642 37.3805 8.36976C36.9038 7.89311 36.2573 7.62533 35.5833 7.62533H25.4166ZM43.2083 12.7087V10.167C43.2083 8.14471 42.4049 6.20527 40.9749 4.7753C39.545 3.34534 37.6055 2.54199 35.5833 2.54199H25.4166C23.3943 2.54199 21.4549 3.34534 20.0249 4.7753C18.5949 6.20527 17.7916 8.14471 17.7916 10.167V12.7087H12.7083C11.3045 12.7087 10.1666 13.8466 10.1666 15.2503V50.8337C10.1666 52.8559 10.9699 54.7954 12.3999 56.2253C13.8299 57.6553 15.7693 58.4587 17.7916 58.4587H43.2083C45.2305 58.4587 47.17 57.6553 48.5999 56.2253C50.0299 54.7954 50.8333 52.8559 50.8333 50.8337V15.2503C50.8333 13.8466 49.6953 12.7087 48.2916 12.7087H43.2083ZM15.2499 17.792V50.8337C15.2499 51.5077 15.5177 52.1542 15.9944 52.6309C16.471 53.1075 17.1175 53.3753 17.7916 53.3753H43.2083C43.8823 53.3753 44.5288 53.1075 45.0055 52.6309C45.4821 52.1542 45.7499 51.5077 45.7499 50.8337V17.792H15.2499Z" fill="#FF313A"/>
<path fill-rule="evenodd" clip-rule="evenodd" d="M25.4166 25.417C26.8203 25.417 27.9583 26.5549 27.9583 27.9587V43.2087C27.9583 44.6124 26.8203 45.7503 25.4166 45.7503C24.0129 45.7503 22.8749 44.6124 22.8749 43.2087V27.9587C22.8749 26.5549 24.0129 25.417 25.4166 25.417Z" fill="#FF313A"/>
<path fill-rule="evenodd" clip-rule="evenodd" d="M35.5833 25.417C36.987 25.417 38.1249 26.5549 38.1249 27.9587V43.2087C38.1249 44.6124 36.987 45.7503 35.5833 45.7503C34.1795 45.7503 33.0416 44.6124 33.0416 43.2087V27.9587C33.0416 26.5549 34.1795 25.417 35.5833 25.417Z" fill="#FF313A"/>
</svg>
