<svg width="32" height="32" viewBox="0 0 32 32" fill="none" xmlns="http://www.w3.org/2000/svg">
<path fill-rule="evenodd" clip-rule="evenodd" d="M24.9429 7.05752C25.4636 7.57822 25.4636 8.42244 24.9429 8.94313L8.94289 24.9431C8.42219 25.4638 7.57797 25.4638 7.05727 24.9431C6.53657 24.4224 6.53657 23.5782 7.05727 23.0575L23.0573 7.05752C23.578 6.53682 24.4222 6.53682 24.9429 7.05752Z" fill="#191B24"/>
<path fill-rule="evenodd" clip-rule="evenodd" d="M7.05727 7.05752C7.57797 6.53682 8.42219 6.53682 8.94289 7.05752L24.9429 23.0575C25.4636 23.5782 25.4636 24.4224 24.9429 24.9431C24.4222 25.4638 23.578 25.4638 23.0573 24.9431L7.05727 8.94313C6.53657 8.42244 6.53657 7.57822 7.05727 7.05752Z" fill="#191B24"/>
</svg>
