<svg width="40" height="40" viewBox="0 0 40 40" fill="none" xmlns="http://www.w3.org/2000/svg">
<path fill-rule="evenodd" clip-rule="evenodd" d="M31.1782 8.82148C31.8291 9.47236 31.8291 10.5276 31.1782 11.1785L11.1782 31.1785C10.5273 31.8294 9.47204 31.8294 8.82116 31.1785C8.17029 30.5276 8.17029 29.4724 8.82116 28.8215L28.8212 8.82148C29.472 8.17061 30.5273 8.17061 31.1782 8.82148Z" fill="white"/>
<path fill-rule="evenodd" clip-rule="evenodd" d="M8.82116 8.82148C9.47204 8.17061 10.5273 8.17061 11.1782 8.82148L31.1782 28.8215C31.8291 29.4724 31.8291 30.5276 31.1782 31.1785C30.5273 31.8294 29.472 31.8294 28.8212 31.1785L8.82116 11.1785C8.17029 10.5276 8.17029 9.47236 8.82116 8.82148Z" fill="white"/>
</svg>
